HIERARCHY
ROOT Hips
{
  OFFSET -32.5998 29.0326 120.673
  CHANNELS 6 Xposition Yposition Zposition Zrotation Xrotation Yrotation
  JOINT LeftUpLeg
  {
    OFFSET 8.64259 1.95398 -2.38835
    CHANNELS 3 Zrotation Xrotation Yrotation
    JOINT LeftLeg
    {
      OFFSET 43.7702 0 0
      CHANNELS 3 Zrotation Xrotation Yrotation
      JOINT LeftFoot
      {
        OFFSET 40.6238 0 0
        CHANNELS 3 Zrotation Xrotation Yrotation
        JOINT LeftToeBase
        {
          OFFSET 12.7242 0 0
          CHANNELS 3 Zrotation Xrotation Yrotation
          End Site
          {
            OFFSET 0 0 0
          }
        }
      }
    }
  }
  JOINT RightUpLeg
  {
    OFFSET -8.2249 1.95398 -2.59336
    CHANNELS 3 Zrotation Xrotation Yrotation
    JOINT RightLeg
    {
      OFFSET 43.5653 0 0
      CHANNELS 3 Zrotation Xrotation Yrotation
      JOINT RightFoot
      {
        OFFSET 40.6238 0 0
        CHANNELS 3 Zrotation Xrotation Yrotation
        JOINT RightToeBase
        {
          OFFSET 12.7242 0 0
          CHANNELS 3 Zrotation Xrotation Yrotation
          End Site
          {
            OFFSET 0 0 0
          }
        }
      }
    }
  }
  JOINT Spine
  {
    OFFSET 0.165834 0.87714 6.61349
    CHANNELS 3 Zrotation Xrotation Yrotation
    JOINT Spine1
    {
      OFFSET 7.38963 1.71661e-005 0
      CHANNELS 3 Zrotation Xrotation Yrotation
      JOINT Spine2
      {
        OFFSET 11.9445 1.14441e-005 0
        CHANNELS 3 Zrotation Xrotation Yrotation
        JOINT Spine3
        {
          OFFSET 14.7254 4.19617e-005 0
          CHANNELS 3 Zrotation Xrotation Yrotation
          JOINT Spine4
          {
            OFFSET 10.9679 0 0
            CHANNELS 3 Zrotation Xrotation Yrotation
            JOINT RightShoulder
            {
              OFFSET 2.46616 -1.6653 3.69651
              CHANNELS 3 Zrotation Xrotation Yrotation
              JOINT RightArm
              {
                OFFSET 13.0012 0 0
                CHANNELS 3 Zrotation Xrotation Yrotation
                JOINT RightForeArm
                {
                  OFFSET 28.7848 1.62311e-005 0
                  CHANNELS 3 Zrotation Xrotation Yrotation
                  JOINT RightHand
                  {
                    OFFSET 26.5688 1.62095e-005 0
                    CHANNELS 3 Zrotation Xrotation Yrotation
                    End Site
                    {
                      OFFSET 0 0 0
                    }
                  }
                }
              }
            }
            JOINT LeftShoulder
            {
              OFFSET 2.38034 -1.29275 -3.7523
              CHANNELS 3 Zrotation Xrotation Yrotation
              JOINT LeftArm
              {
                OFFSET 16.3182 6.07031e-005 0
                CHANNELS 3 Zrotation Xrotation Yrotation
                JOINT LeftForeArm
                {
                  OFFSET 27.0901 0 0
                  CHANNELS 3 Zrotation Xrotation Yrotation
                  JOINT LeftHand
                  {
                    OFFSET 24.5451 1.51738e-005 0
                    CHANNELS 3 Zrotation Xrotation Yrotation
                    End Site
                    {
                      OFFSET 0 0 0
                    }
                  }
                }
              }
            }
            JOINT Neck
            {
              OFFSET 5.0226 -0.0266342 0
              CHANNELS 3 Zrotation Xrotation Yrotation
              JOINT Head
              {
                OFFSET 6.69364 2.86102e-005 0
                CHANNELS 3 Zrotation Xrotation Yrotation
                End Site
                {
                  OFFSET 0 0 0
                }
              }
            }
          }
        }
      }
    }
  }
}
MOTION
Frames:	18
Frame Time:	0.0416667
175.092 103.065 -180.748 97.4258 -43.4839 96.7839 -172.506 -0.883065 92.0527 -16.6375 16.8324 -0.530432 73.2707 8.0909 -0.506618 16.8797 -10.1779 8.99769 173.46 -2.33925 91.5026 -12.5721 2.98456 1.00366 67.6997 -4.83987 0.822189 23.7685 1.42737 2.88194 0.348997 7.6105 -89.3355 11.6461 1.00578 1.2197 -0.0250206 1.05848 1.17425 -22.5569 0.592754 1.46555 -2.54427 0.59275 1.46554 91.3348 -27.349 -105.055 48.5398 -21.0861 -1.92496 -13.61 -15.076 -25.6092 -9.25776 0.00989806 -5.58518 -85.7409 -43.8807 84.1894 -27.5154 24.2321 -9.04375 6.97836 -7.50335 -16.664 -2.52567 -0.0860389 -3.85272 1.53889 -10.8041 -13.5807 -5.27459 -8.53564 -4.90677 
173.994 102.712 -180.449 95.9996 -43.8289 97.7561 -170.971 3.3576 94.9921 -20.9883 18.2371 -1.3578 74.8354 8.76333 -0.998041 15.5802 -9.95272 7.39717 172.834 2.98879 93.932 -20.9645 0.784512 2.71163 68.2933 -5.30304 0.101979 24.6897 1.01509 2.94634 0.385763 7.68271 -89.3025 11.5008 1.09353 1.27775 -0.170319 1.14871 1.22839 -22.7021 0.658996 1.54728 -2.6894 0.659006 1.54727 91.2066 -26.8113 -105.523 48.2577 -19.9289 -2.21252 -14.2219 -14.6791 -26.7068 -11.1247 -0.00411857 -5.34518 -85.7687 -44.0908 84.1784 -26.2976 23.7275 -7.48751 6.94353 -7.94587 -16.1147 -2.8525 -0.0860321 -3.9194 6.07416 -10.9745 -15.7061 -5.9758 -7.65612 -5.88295 
172.968 102.858 -180.129 94.6717 -43.2168 99.2249 -169.952 6.16804 98.2464 -22.5942 20.558 -1.41711 74.8293 9.06508 -0.806909 17.5528 -9.48351 8.45044 169.597 7.59008 91.4697 -22.0681 -0.129002 5.67761 63.9968 -2.18469 -0.423093 27.7549 -0.861467 5.26483 0.29307 7.8007 -89.3493 11.266 0.886164 1.20714 -0.405169 0.938429 1.16697 -22.9367 0.482432 1.41762 -2.92406 0.482424 1.41762 90.2756 -27.767 -107.081 47.3562 -17.9158 -1.50574 -14.9551 -13.7014 -28.1226 -10.246 -0.0580764 -4.70317 -86.1035 -43.2974 83.502 -24.8851 24.3326 -6.80324 6.0695 -10.0937 -13.3699 -1.76574 -0.0859577 -4.58668 9.63187 -11.7637 -17.6436 -6.51386 -7.42028 -6.50832 
172.313 103.141 -179.751 93.2393 -41.1649 100.212 -169.623 8.14557 100.411 -23.0462 22.5278 -0.651406 74.7967 9.4957 -1.4114 17.1253 -9.77725 8.54869 168.282 9.71335 85.6912 -20.1186 4.14485 4.64941 61.5441 -0.090324 0.107859 27.1913 -0.601688 5.10826 0.365753 7.80534 -89.5352 11.259 0.944277 0.832449 -0.411868 0.979999 0.79007 -22.9464 0.650454 1.07774 -2.93372 0.650459 1.07774 91.0338 -27.3077 -105.694 48.3271 -18.65 0.262042 -15.127 -13.5498 -29.1119 -9.12795 -0.114072 -3.95355 -85.6105 -41.9553 84.086 -24.7881 23.9057 -6.12532 5.83229 -11.1068 -14.5981 -1.59242 -0.0859623 -4.54773 9.46809 -13.455 -19.957 -6.34147 -8.654 -4.96256 
171.558 102.908 -178.728 92.6641 -39.0129 102.167 -168.851 11.2416 103.609 -26.5152 25.9467 -0.0285384 76.2835 10.8134 -2.00859 17.1827 -10.4998 9.83874 168.236 9.97322 78.9315 -20.5941 -2.89006 0.327668 63.7771 -1.27091 -1.00595 24.0176 0.936567 4.19642 0.534812 7.75974 -89.8882 11.3543 1.1164 0.110813 -0.316199 1.12019 0.0615776 -22.8547 1.03149 0.441259 -2.84207 1.03149 0.441257 91.7119 -26.3735 -104.63 48.3672 -15.4655 2.81576 -13.9953 -10.0861 -28.4995 -9.58724 0.317361 -9.48594 -85.0129 -41.0754 84.9384 -23.2757 23.5652 -5.3991 5.49843 -12.1114 -15.9339 -1.43712 -0.0859612 -4.55741 5.20505 -13.9969 -21.868 -4.6197 -9.70973 -5.0098 
170.433 102.039 -176.704 92.4786 -37.19 104.436 -168.317 14.7597 107.682 -31.4883 29.5302 0.927156 78.4596 12.5793 -1.92339 19.0792 -9.42769 9.85884 167.178 8.49634 73.8368 -21.2858 -11.0521 -2.10836 63.5689 -0.863798 -0.46031 24.3309 0.712405 4.52452 0.573327 7.76307 -90.2675 11.3495 1.01622 -0.634239 -0.321238 0.987323 -0.678357 -22.8591 1.15984 -0.299471 -2.84648 1.15984 -0.299467 92.0641 -25.498 -104.205 46.7417 -13.5224 4.89339 -15.3708 -12.123 -29.2448 -7.76877 -0.229787 -1.86325 -84.2537 -40.072 86.0693 -22.2174 20.5513 -2.75388 6.4191 -10.7553 -16.9793 -1.84109 -0.085978 -4.41455 3.67122 -14.6539 -24.5855 -5.34688 -10.1785 -4.66302 
167.828 100.261 -174.369 90.8427 -36.6818 105.485 -169.718 21.0755 111.598 -39.1119 30.7344 2.64869 81.1982 14.3375 -2.55285 20.7657 -8.53868 9.96458 166.8 9.64054 71.8584 -23.0225 -17.0512 -2.77984 63.3988 -0.812723 -0.317192 24.1645 0.890761 4.14409 0.589629 7.68375 -90.5992 11.5126 0.892856 -1.28517 -0.158694 0.835435 -1.32323 -22.6934 1.23782 -0.957444 -2.68074 1.23782 -0.957446 93.3548 -24.017 -101.919 45.399 -14.1368 5.83072 -15.2825 -11.0334 -30.4631 -8.73947 -0.0648881 -4.56128 -83.9443 -37.7624 86.2621 -21.9462 19.0928 -0.0554272 6.80855 -10.4663 -17.2251 -2.19854 -0.0859955 -4.26106 4.51989 -15.9003 -27.5362 -6.26318 -10.6729 -3.89325 
164.095 97.7847 -171.202 89.3204 -35.71 106.447 -172.405 27.6912 116.698 -46.8151 32.1317 4.80359 83.9155 15.8921 -3.30354 21.8872 -7.65743 9.46471 167.066 9.5388 72.5752 -23.5861 -21.3868 -3.00642 62.6584 -0.642618 0.757702 23.2484 1.43198 3.61201 0.434858 7.56277 -90.9394 11.7484 0.423757 -1.91679 0.0761191 0.339 -1.93358 -22.4502 0.980166 -1.70093 -2.43754 0.980154 -1.70093 93.6847 -24.7416 -100.957 43.2355 -11.0609 8.14405 -16.4759 -10.5547 -33.0444 -8.42192 -0.0763446 -4.36392 -84.2806 -35.6788 85.3408 -21.5227 19.8039 1.25057 6.59159 -10.6502 -15.0015 -1.68758 -0.0860597 -3.64113 3.92303 -17.196 -31.3263 -6.94397 -11.4449 -3.02457 
159.628 94.7669 -167.522 90.4217 -36.4867 106.045 -174.258 30.5661 120.083 -52.4078 31.7035 6.21563 85.6804 16.6702 -4.02614 26.1146 -6.79685 12.4567 167.956 10.7171 72.2792 -27.2859 -26.6048 -4.71857 59.448 1.01243 1.8527 24.4825 1.0131 3.25616 0.272943 7.65048 -90.9528 11.5699 0.0969994 -1.90849 -0.102476 0.0129213 -1.91091 -22.6274 0.666003 -1.79118 -2.61479 0.665998 -1.79118 93.6998 -26.0817 -100.497 42.0404 -8.04937 9.41821 -16.9058 -9.6759 -34.5345 -9.21529 -0.167754 -3.22426 -84.591 -35.1433 84.691 -19.4949 20.2349 -0.669589 6.40092 -11.0279 -11.6934 -1.34987 -0.0860375 -3.86677 0.795836 -16.5549 -33.7415 -5.13154 -11.4051 -2.75319 
154.409 91.5731 -162.773 93.5256 -38.8078 104.913 -174.581 29.0861 122.177 -53.9247 29.8274 7.33874 86.697 16.6293 -5.26927 30.8753 -5.32026 15.2292 169.78 11.9944 72.0464 -34.4065 -32.4587 -7.34726 57.772 1.735 1.87238 27.6935 0.0453851 1.35369 0.110719 7.76119 -90.9886 11.3454 -0.2405 -1.94489 -0.326921 -0.325872 -1.93243 -22.8506 0.355011 -1.92728 -2.83798 0.355013 -1.92729 93.7879 -25.7895 -100.397 41.7782 -7.55209 11.7984 -19.4385 -11.6686 -37.31 -7.89828 -0.094291 -4.01364 -84.6386 -36.641 84.8568 -19.7789 16.9129 -0.854958 6.26233 -12.9135 -15.0432 -0.311374 -0.0863583 -4.18124 -1.55302 -15.1507 -29.5805 -6.11465 -11.2564 -3.17961 
148.084 89.0038 -156.102 98.9606 -42.802 104.892 -171.863 23.0001 124.591 -49.0366 29.5134 8.0817 82.7088 14.031 -4.86614 36.3128 -2.99868 17.4726 169.503 11.5858 71.2196 -40.0357 -29.6608 -7.29804 64.7544 -2.9929 1.76009 44.8281 -6.51554 -6.27145 0.00273477 7.99043 -91.1029 10.8827 -0.504276 -2.14757 -0.789868 -0.59829 -2.12332 -23.3107 0.16428 -2.19983 -3.2981 0.164293 -2.19983 94.3685 -24.9204 -99.4027 40.8077 -7.53121 12.7444 -21.1286 -13.9273 -38.4676 -9.58297 -0.221624 -2.75171 -83.9371 -38.7811 86.4273 -22.0816 14.4875 0.671005 6.36131 -12.5709 -21.0504 -0.466634 -0.0949323 -4.66025 -1.29853 -12.6151 -20.3662 -9.67202 -9.88463 -0.943257 
140.385 90.6609 -147.98 105.325 -46.7574 105.889 -167.567 16.0965 126.536 -37.1717 36.0014 7.90795 59.6999 0.371762 -4.00001 39.8172 -0.430638 15.7768 168.035 12.347 71.6925 -46.6546 -32.6723 -6.28927 71.5677 -8.05241 1.12585 45.2377 -6.90242 -4.4302 -0.243983 8.22967 -90.8725 10.4053 -0.885731 -1.65344 -1.26639 -0.957638 -1.61287 -23.7936 -0.347949 -1.84313 -3.78099 -0.347946 -1.84313 94.2867 -25.1122 -99.5222 40.3328 -6.95267 8.61898 -16.6373 -14.134 -29.402 -14.7015 -0.306905 -2.77472 -83.6532 -39.9051 87.0694 -25.7353 9.04153 6.63655 8.32648 -8.95225 -27.4238 -1.16787 -0.0918111 -4.33716 -7.52597 -7.20031 -11.0057 -10.2588 -6.14505 -3.36345 
132.974 94.011 -141.525 105.096 -48.186 101.072 -169.774 14.5723 120.793 -35.5459 29.7763 7.85232 59.5266 0.0631197 0.799139 11.5615 -12.601 8.00537 168.326 10.5238 73.5045 -44.1751 -30.6027 -5.88312 75.6371 -11.0931 0.969731 42.892 -6.07592 -1.40492 -0.317493 8.07746 -90.4186 10.7157 -0.824996 -0.756443 -0.955183 -0.857506 -0.719406 -23.4897 -0.559538 -0.969407 -3.47703 -0.559548 -0.969416 94.4344 -24.2042 -99.4712 43.2507 -5.75984 7.25101 -13.3677 -9.89645 -25.263 -16.7087 -0.333711 -2.92363 -83.4712 -41.3676 87.5661 -26.2674 8.62131 8.12471 10.3885 -5.73623 -29.6576 0.122302 -0.0575618 -2.85558 -12.647 -5.18482 -6.89161 -11.8092 -4.94707 -1.05841 
127.691 96.8327 -137.844 104.18 -48.9699 97.5485 -166.266 15.7082 111.505 -36.1082 5.81534 0.579111 71.2821 6.99013 1.26432 13.5048 -9.59792 4.9807 166.772 9.87616 73.801 -39.0235 -33.1317 -3.88022 73.5461 -9.32654 1.26965 43.1723 -6.27284 -0.65367 -0.017693 8.03515 -90.4229 10.802 -0.230406 -0.819451 -0.869181 -0.266245 -0.808527 -23.4023 0.0265178 -0.850802 -3.38968 0.0265136 -0.850817 95.1017 -21.891 -98.6599 43.3878 -9.00316 6.27317 -14.1606 -11.1809 -26.8571 -14.7729 -0.0990184 -4.4958 -83.4441 -41.9776 87.6873 -27.8378 9.22152 7.25096 11.0183 -4.78261 -30.4496 -3.02368 -0.0939813 -3.9905 -15.5152 -4.64596 -3.14469 -11.6662 -4.78919 1.30369 
123.361 99.3654 -135.513 103.132 -47.5311 94.9493 -165.593 17.8692 100.963 -43.1155 -1.42359 -3.22582 72.3232 6.60282 0.424601 15.9799 -8.46287 5.18946 167.421 6.86147 76.1023 -32.7796 -29.6089 -3.17336 71.2506 -7.70143 0.670764 39.4871 -4.92665 1.43978 -0.0336685 8.14797 -90.4826 10.576 -0.288854 -0.933283 -1.09524 -0.329645 -0.919676 -23.6277 0.0049759 -0.976942 -3.61507 0.00497974 -0.976945 95.4663 -21.0453 -98.0629 40.9849 -7.63833 4.37026 -16.3511 -10.895 -31.6745 -14.1004 -0.179216 -3.81246 -83.454 -41.0767 87.5575 -26.7937 10.5032 8.66695 11.8826 -4.34056 -35.0905 -1.82199 -0.0840435 -2.96234 -16.4807 -3.90319 -0.861107 -11.4946 -4.14032 2.61356 
119.934 100.675 -133.762 101.728 -45.9538 93.2693 -166.448 19.1283 92.5837 -47.7035 6.8273 -4.63446 71.806 6.13761 -0.870664 22.4003 -6.56561 7.94557 169.565 5.06866 79.2678 -28.9902 -25.2977 -3.37324 69.9149 -6.5775 -0.521864 36.4328 -4.08502 4.20072 -0.0198572 8.16422 -90.5622 10.5427 -0.297819 -1.09059 -1.12871 -0.345535 -1.07644 -23.6602 0.0437052 -1.12968 -3.64754 0.0436932 -1.12968 96.0464 -20.4254 -96.8648 39.5609 -4.22169 3.74882 -19.0257 -9.72543 -38.4719 -13.9814 -0.222073 -3.43225 -83.4232 -39.6164 87.4243 -25.0229 9.86023 9.46072 11.7738 -4.97584 -39.1324 -1.32705 -0.0757955 -2.75618 -17.977 -3.35403 0.377856 -11.0591 -3.58628 2.81679 
117.415 101.309 -131.871 100.775 -46.0452 92.601 -167.823 16.6371 87.9067 -44.8139 11.7827 -5.39227 71.5204 6.0532 -2.09127 23.8464 -6.35245 8.993 170.715 4.21362 81.7099 -26.8252 -24.1808 -3.17546 70.1884 -6.30554 -0.898804 32.3819 -2.4038 3.86529 0.0763637 8.0843 -90.5134 10.7038 -0.0844277 -1.01294 -0.967524 -0.128946 -1.00826 -23.4996 0.223902 -0.991496 -3.48696 0.223899 -0.991504 95.7279 -20.5949 -97.5762 39.6035 -3.02411 4.80199 -20.2211 -8.96977 -42.323 -13.5581 -0.267729 -2.97151 -82.9622 -38.4454 88.0731 -24.9606 6.90857 11.551 12.3609 -4.84325 -45.3926 -1.66851 -0.0792839 -2.54162 -19.1197 -2.33533 -0.185749 -10.8196 -2.59267 3.32008 
115.768 101.773 -129.88 100.175 -46.0279 92.7398 -171.381 11.0581 85.5688 -36.1203 10.3607 -3.8619 72.8091 7.24211 -1.76871 21.3461 -7.36041 8.35098 171.344 2.42218 83.7933 -23.4824 -23.3312 -2.5479 69.3572 -5.61271 -1.11398 31.4726 -2.24428 4.85446 0.0848625 7.95303 -90.4309 10.9671 -0.0304738 -0.854673 -0.704168 -0.0680754 -0.852501 -23.2372 0.227778 -0.824325 -3.22453 0.227793 -0.824324 96.0165 -20.7703 -96.8433 41.8965 -4.47449 5.74795 -21.4839 -9.66982 -44.012 -12.8514 -0.21197 -3.36587 -82.674 -39.3748 88.6823 -25.267 5.30879 13.448 13.2048 -4.48929 -50.1785 -2.06399 -0.0856903 -2.5789 -19.0784 -1.38331 -0.358191 -10.8272 -1.5737 2.45185 
